<svg xmlns="http://www.w3.org/2000/svg" viewBox="0 0 101 16" width="101" height="16"><path fill="none" pointer-events="none" d="M0 0h101v16H0z"/><g fill="#FFFFFF"><path d="M63.456 6.147a.4.4 0 0 0-.422-.42.697.697 0 0 0-.683.701c0 .179.075.376.336.682.481-.196.769-.58.769-.963m-14.024 1.28c-.354.426-.53 1.288-.53 1.867 0 .394.1.564.345.564.354 0 .717-.367.835-.682l.448-2.057a.739.739 0 0 0-.303-.068c-.28 0-.491.017-.795.376m12.016 1.851c0 .392.287.622.793.622.404 0 .734-.11.96-.306l-1.097-1.332c-.42.23-.656.58-.656 1.016m7.438-3.616h-.534l-.843 3.863h.582c.506 0 .887-.222 1.098-.556.523-.827.634-1.973.634-2.289 0-.545-.153-1.018-.937-1.018m-25.768 0h-.735l-.28 1.38h.692c.323 0 .473-.06.618-.163a.879.879 0 0 0 .354-.68c0-.367-.161-.537-.65-.537m30.608 1.33c-.433 0-.752.255-.923 1.014 0 0 .171.042.322.042.49 0 1.055-.17 1.055-.605 0-.265-.118-.451-.454-.451m-39.318.451c0-.265-.118-.451-.456-.451-.43 0-.753.255-.92 1.014 0 0 .167.042.32.042.49 0 1.056-.17 1.056-.605m8.229.702H41.9l-.337 1.38h.768c.245 0 .455-.009.607-.113.263-.178.447-.463.447-.796 0-.417-.227-.47-.75-.47m-20.547-.719c-.354.426-.532 1.288-.532 1.867 0 .394.102.564.347.564.354 0 .717-.367.836-.682l.447-2.057a.739.739 0 0 0-.304-.068c-.28 0-.49.017-.794.376"/><path d="M90.804 7.247a.619.619 0 0 0-.329-.085c-.219 0-.465.133-.818.602l-.6 2.864h-1.132l.607-2.89c.118-.545.102-.931.017-1.214l1.047-.42c.07.145.136.462.102.708.38-.392.784-.665 1.207-.665a.71.71 0 0 1 .389.093zM85.492 8.85c-.295 0-.514-.06-.514-.06s-.043.282-.043.392c0 .496.254.7.726.7.39 0 .795-.17 1.2-.46l.286.717c-.582.409-1.147.597-1.755.597-1.031 0-1.64-.547-1.64-1.604 0-.905.398-1.835.972-2.399.432-.417.913-.578 1.488-.578.852 0 1.466.34 1.466 1.194 0 .827-.75 1.501-2.186 1.501zm-3.545 1.777l-.93-2.497 1.462-1.917h1.4L82.117 8.13l1.165 2.497zm-2.609 0l1.013-4.8c.126-.607.144-.958.085-1.206l1.173-.368c.06.213.05.738-.144 1.651l-.997 4.723zm-2.152.1c-.965 0-1.488-.563-1.488-1.502 0-1.083.5-2.073 1.099-2.585.389-.333.818-.52 1.418-.52.396 0 .834.162 1.148.52l-.659.717c-.185-.213-.43-.324-.64-.324a.686.686 0 0 0-.531.256c-.314.358-.601 1.26-.601 1.936 0 .453.21.648.514.648.314 0 .625-.178.948-.435l.378.71c-.473.366-.952.579-1.586.579zM73.132 8.85c-.296 0-.515-.06-.515-.06s-.041.282-.041.392c0 .496.252.7.725.7.39 0 .795-.17 1.198-.46l.287.717c-.582.409-1.147.597-1.755.597-1.03 0-1.639-.547-1.639-1.604 0-.905.398-1.835.973-2.399.429-.417.912-.578 1.485-.578.852 0 1.468.34 1.468 1.194 0 .827-.75 1.501-2.186 1.501zm-3.106.884c-.618.658-1.208.893-2.5.893h-1.428l1.25-6.069H68.7c.978 0 1.579.175 1.948.645.27.35.447.776.447 1.476 0 .973-.347 2.278-1.07 3.055zm-5.977.893l-.289-.381c-.413.291-.912.492-1.731.492-1.172 0-1.823-.59-1.823-1.367 0-.715.49-1.349 1.42-1.74-.348-.325-.44-.607-.44-.982 0-.947.869-1.715 2.008-1.715.87 0 1.419.435 1.419 1.058 0 .657-.237 1.152-1.302 1.647l-.11.051.778.886c.153-.24.27-.708.288-.983h.945c-.1.827-.337 1.311-.64 1.739l.97 1.295zm-5.659 0l-.929-2.497 1.461-1.917h1.4L58.56 8.131l1.165 2.497zm-2.608 0l1.014-4.8c.125-.607.143-.958.084-1.206l1.172-.368c.059.213.05.738-.143 1.651l-.996 4.723zm-2.155.1c-.96 0-1.483-.563-1.483-1.502 0-1.083.498-2.073 1.096-2.585.387-.333.819-.52 1.419-.52.397 0 .834.162 1.147.52l-.658.717c-.186-.213-.43-.324-.641-.324a.69.69 0 0 0-.532.256c-.313.358-.6 1.26-.6 1.936 0 .453.211.648.515.648.312 0 .625-.178.945-.435l.38.71c-.472.366-.954.579-1.588.579zm-2.092-3.19l-.348 1.654c-.076.376-.041.63.162.854l-.938.707c-.202-.136-.294-.365-.329-.537-.32.342-.674.52-1.147.52-.785 0-1.191-.486-1.191-1.39 0-1.05.398-1.98.913-2.5.471-.478 1.003-.682 1.721-.682.507 0 1.072.084 1.436.298a9.458 9.458 0 0 0-.279 1.076zm-4.163-1.93l-.684 3.234c-.11.512-.144.726-.144.845 0 .162.068.248.22.248.042 0 .084 0 .127-.017l.05.683a2.06 2.06 0 0 1-.701.119c-.607 0-.894-.333-.894-.785 0-.155.058-.48.126-.793l.685-3.26c.118-.572.187-.973.1-1.263l1.199-.367c.034.197.034.803-.084 1.357zM44.688 8.62c0 .375-.153.962-.55 1.372-.431.444-.92.636-1.832.636h-2.128l1.25-6.069h2.086c.887 0 1.527.491 1.527 1.344 0 .58-.362 1.278-1.231 1.535.539.118.878.628.878 1.182zm-7.926 3.507a2.71 2.71 0 0 1-1.131.4l-.228-.768c.262-.059.566-.148.76-.266.346-.212.481-.313.751-.865h-.312a20.31 20.31 0 0 0-.11-1.234l-.388-3.074 1.165-.138.212 2.551c.016.263.033.903.033.903s.296-.777.582-1.322l1.09-2.1H40.4l-2.506 4.455c-.473.845-.769 1.227-1.132 1.458zm-3.233-2.245c.388 0 .793-.17 1.198-.46l.287.718c-.582.409-1.148.597-1.756.597-1.03 0-1.636-.547-1.636-1.604 0-.905.396-1.835.97-2.399.429-.417.91-.578 1.487-.578.851 0 1.467.34 1.467 1.194 0 .827-.752 1.501-2.186 1.501-.295 0-.516-.06-.516-.06s-.042.282-.042.392c0 .496.254.7.727.7zM31.376 5.61l-.685 3.233c-.11.512-.143.726-.143.845 0 .162.068.248.22.248.043 0 .085 0 .126-.017l.051.683a2.06 2.06 0 0 1-.7.119c-.608 0-.895-.333-.895-.785 0-.155.059-.48.126-.793l.683-3.26c.12-.572.186-.973.103-1.263l1.198-.367c.034.197.034.803-.084 1.357zm-2.584 2.028l-.624 2.991h-1.115l.6-2.847c.033-.17.058-.3.058-.394 0-.214-.092-.275-.296-.275-.27 0-.59.175-.944.661l-.6 2.855h-1.115l.617-2.949c.101-.477.092-.856 0-1.155l1.047-.42c.076.145.127.52.11.708.362-.392.826-.656 1.46-.656.549 0 .87.335.87.864 0 .188-.027.429-.068.617zm-4.6-.1l-.347 1.655c-.077.376-.043.63.159.854l-.936.707c-.203-.136-.296-.365-.33-.537-.32.342-.675.52-1.148.52-.785 0-1.19-.486-1.19-1.39 0-1.05.396-1.98.911-2.5.472-.478 1.004-.682 1.723-.682.506 0 1.071.084 1.436.298a9.62 9.62 0 0 0-.279 1.076zm-4.918 2.39c.1 0 .153-.036.426-.086v.691c-.273.127-.672.188-.966.188-.65 0-1.025-.324-1.025-.751 0-.154.016-.354.059-.56l.495-2.367h-.43l.168-.828h.432c.084-.276.143-.69.261-1.015l1.19-.299c-.127.401-.252 1.038-.346 1.314h1.005l-.405.828h-.752l-.455 2.188a1.67 1.67 0 0 0-.04.383c0 .238.129.313.383.313zm-4.034-3.1l.675.231c.76.255 1.156.665 1.156 1.338 0 1.29-1.089 2.347-2.845 2.347-.827 0-1.443-.221-1.932-.537l.624-.914c.49.291.928.461 1.519.461.745 0 1.225-.392 1.225-.981 0-.3-.203-.496-.625-.64l-.616-.213c-.666-.23-1.072-.555-1.072-1.246 0-1.195 1.114-2.167 2.506-2.167.718 0 1.403.222 1.833.597l-.71.82c-.379-.29-.793-.418-1.3-.418-.531 0-.979.34-.979.75 0 .24.143.435.541.572zM-.5.145v16h91.8l9.2-16H-.5"/><path d="M86.083 6.992c-.43 0-.75.255-.92 1.014 0 0 .17.042.321.042.49 0 1.056-.17 1.056-.605 0-.265-.118-.451-.457-.451"/></g></svg>