<svg xmlns="http://www.w3.org/2000/svg" viewBox="0 0 68 9" width="68" height="9">
  <path fill="none" pointer-events="none" d="M0 0h68v9H0z"/>
  <path d="M.292 8.925A.295.295 0 0 1 0 8.627V.269c0-.165.13-.298.292-.298h8.16c.16 0 .291.133.291.298v1.194c0 .165-.13.299-.291.299h-5.83a.295.295 0 0 0-.29.298v1.194c0 .165.13.298.29.298H7.87c.161 0 .291.134.291.299v1.194c0 .165-.13.298-.291.298H2.623a.295.295 0 0 0-.291.299v2.985a.296.296 0 0 1-.292.298H.292M59.548-.05a.295.295 0 0 0-.291.299v8.357c0 .165.13.298.291.298h8.16A.295.295 0 0 0 68 8.606V7.412a.295.295 0 0 0-.291-.298h-5.83a.295.295 0 0 1-.29-.299L61.58.217s.02-.266-.284-.267h-1.749M9.326.27c0-.166.13-.299.292-.299h8.743c.16 0 .291.133.291.298v1.194c0 .165-.13.299-.291.299h-6.412a.295.295 0 0 0-.291.298v1.194c0 .165.13.298.291.298h5.829c.16 0 .291.134.291.299v1.194c0 .165-.13.298-.291.298h-5.829a.295.295 0 0 0-.291.299v1.193c0 .166.13.299.291.299h6.412c.16 0 .291.134.291.299v1.194c0 .164-.13.298-.291.298H9.618a.295.295 0 0 1-.292-.298V.269m9.909 3.283c0 .99.783 1.791 1.749 1.791h4.663a.59.59 0 0 1 .583.597v.597a.59.59 0 0 1-.583.597h-3.789a.295.295 0 0 1-.291-.298.295.295 0 0 0-.292-.299h-1.748a.295.295 0 0 0-.292.298v.299c0 .99.783 1.791 1.749 1.791h5.828c.967 0 1.75-.802 1.75-1.791v-1.79c0-.99-.783-1.792-1.75-1.792H22.15a.59.59 0 0 1-.583-.596v-.597a.59.59 0 0 1 .583-.597h3.788c.161 0 .292.133.292.298 0 .165.13.299.291.299h1.749c.16 0 .291-.134.291-.299v-.298c0-.99-.782-1.791-1.749-1.791h-5.828c-.966 0-1.749.802-1.749 1.79v1.791M29.144.27c0-.166.13-.299.292-.299h8.743c.16 0 .291.133.291.298v1.194c0 .165-.13.299-.29.299h-2.916a.296.296 0 0 0-.291.298v6.567c0 .164-.13.298-.292.298h-1.748a.295.295 0 0 1-.292-.298V2.06a.295.295 0 0 0-.291-.298h-2.914a.295.295 0 0 1-.292-.299V.27m12.823 6.864h3.498a.59.59 0 0 0 .583-.597V2.359a.59.59 0 0 0-.583-.597h-3.498a.59.59 0 0 0-.582.597v4.178c0 .33.26.597.582.597zm-1.165 1.791c-.966 0-1.75-.802-1.75-1.791V1.762c0-.99.784-1.791 1.75-1.791h5.829c.965 0 1.748.802 1.748 1.79v5.373c0 .99-.783 1.791-1.748 1.791H40.8M52.095 7.16h3.497a.59.59 0 0 0 .583-.598V2.384a.59.59 0 0 0-.583-.597h-3.497a.59.59 0 0 0-.583.597v4.178c0 .33.261.597.583.597zM50.93 8.95c-.966 0-1.749-.802-1.749-1.79V1.786c0-.989.783-1.79 1.749-1.79h5.828c.966 0 1.749.801 1.749 1.90v5.372c0 .99-.783 1.791-1.749 1.791H50.93" fill="#FFFFFF"/>
</svg>
