<svg width="72" height="72" viewBox="0 0 532 683" version="1.1" xmlns="http://www.w3.org/2000/svg" xmlns:xlink="http://www.w3.org/1999/xlink" xml:space="preserve" xmlns:serif="http://www.serif.com/" style="fill-rule:evenodd;clip-rule:evenodd;stroke-linejoin:round;stroke-miterlimit:2;">
  <g transform="matrix(1,0,0,1,-717.354,-813.846)">
    <g transform="matrix(1,0,0,1,174.046,-160.567)">
      <path d="M704.885,1652.24C699.668,1654.82 691.481,1656.63 683.406,1656.63C669.014,1656.63 656.764,1647.84 656.764,1631.64L656.764,1606.1C656.764,1588.9 669.289,1580.06 685.164,1580.06C693.131,1580.06 699.777,1581.87 704.227,1583.79L702.302,1592.14C698.348,1590.66 691.535,1589.07 686.043,1589.07C673.464,1589.07 666.431,1595.6 666.431,1606.86L666.431,1630.92C666.431,1642.18 673.135,1647.62 684.781,1647.62C688.902,1647.62 692.581,1647.08 695.656,1646.14L695.656,1619.83L704.885,1619.83L704.885,1652.24ZM779.647,1605C779.647,1588.41 792.172,1580.06 806.397,1580.06C820.626,1580.06 833.155,1588.41 833.155,1605L833.155,1631.69C833.155,1648.28 820.626,1656.63 806.397,1656.63C792.172,1656.63 779.647,1648.28 779.647,1631.69L779.647,1605ZM900.279,1581.15L900.279,1633.23C900.279,1647.68 889.458,1656.63 874.408,1656.63C859.354,1656.63 848.533,1647.68 848.533,1633.23L848.533,1581.15L858.312,1581.15L858.312,1633.18C858.312,1642.13 864.737,1648.06 874.408,1648.06C884.02,1648.06 890.5,1642.24 890.5,1633.18L890.5,1581.15L900.279,1581.15ZM744.216,1581.15C756.195,1581.15 767.945,1588.4 767.945,1602.86L767.945,1606.76C767.945,1617.68 761.299,1624.5 752.949,1627.19L768.116,1655.53L757.291,1655.53L743.337,1628.56L729.77,1628.56L729.77,1655.53L719.991,1655.53L719.991,1581.15L744.216,1581.15ZM928.184,1629.72L928.184,1655.53L918.405,1655.53L918.405,1581.16L942.08,1581.16C954.055,1581.16 965.813,1588.41 965.813,1602.85L965.813,1607.85C965.813,1622.41 954.055,1629.72 942.08,1629.72L928.184,1629.72ZM789.313,1630.92C789.313,1641.58 795.468,1648.06 806.397,1648.06C817.334,1648.06 823.484,1641.58 823.484,1630.92L823.484,1605.77C823.484,1595.11 817.334,1588.62 806.397,1588.62C795.468,1588.62 789.313,1595.11 789.313,1605.77L789.313,1630.92ZM928.184,1589.51L928.184,1621.37L941.259,1621.37C950.101,1621.37 956.143,1616.64 956.143,1607.08L956.143,1603.62C956.143,1594.17 950.101,1589.51 941.259,1589.51L928.184,1589.51ZM729.77,1589.51L729.77,1620.27L743.391,1620.27C752.237,1620.27 758.278,1615.54 758.278,1605.98L758.278,1603.62C758.278,1594.18 752.237,1589.51 743.391,1589.51L729.77,1589.51Z" style="fill:#ffffff;"></path>
      <path d="M543.308,974.413L1074.8,974.413L1074.8,1505.91L543.308,1505.91L543.308,974.413ZM675.328,1355.24C642.823,1355.24 614.736,1349.14 601.223,1344.65L608.969,1293.51C620.853,1296.92 642.311,1302.26 663.607,1302.26C682.103,1302.26 694.498,1299.24 694.498,1286.23C694.498,1268.88 676.978,1271.54 637.532,1255.33C614.407,1245.94 603.019,1229.26 603.019,1197.4C603.019,1154.79 631.107,1125.09 684.244,1125.09C716.436,1125.09 742.29,1131.35 751.007,1133.68L741.703,1185.19C729.819,1182.22 709.99,1177.9 693.144,1177.9C675.015,1177.9 663.773,1183.35 663.773,1194.58C663.773,1204.52 669.561,1208.95 684.082,1213.59L706.694,1220.67C740.715,1231.42 756.736,1249.88 756.736,1285.57C756.736,1329 733.794,1355.24 675.328,1355.24ZM847.091,1355.24C814.541,1355.24 786.474,1349.14 772.941,1344.65L780.703,1293.51C792.608,1296.92 814.049,1302.26 835.37,1302.26C853.828,1302.26 866.224,1299.24 866.224,1286.23C866.224,1268.88 848.703,1271.54 809.233,1255.33C786.162,1245.94 774.753,1229.26 774.753,1197.4C774.753,1154.79 802.824,1125.09 855.991,1125.09C888.178,1125.09 914.016,1131.35 922.749,1133.68L913.412,1185.19C901.545,1182.22 881.733,1177.9 864.887,1177.9C846.724,1177.9 835.499,1183.35 835.499,1194.58C835.499,1204.52 841.27,1208.95 855.824,1213.59L878.437,1220.67C912.458,1231.42 928.462,1249.88 928.462,1285.57C928.462,1329 905.503,1355.24 847.091,1355.24ZM953.329,1128.39L1016.93,1128.39L1016.93,1351.94L953.329,1351.94L953.329,1128.39Z" style="fill:#ffffff;"></path>
    </g>
  </g>
</svg>