<svg class="Logostyled__StyledDesktopLogo-sc-5k2fz8-0 dcjtVu" id="Calque_1" viewBox="0 0 1684.3 374.7">
    <style>
        .st0 { fill: #ffffff; } /* Původně: #1d1d1b */
        .st1 { fill: #ffffff; } /* Původně: #ced500 */
        .st2 { fill: #ffffff; } /* Původně: #8cbd22 */
        .st3 { fill: #ffffff; } /* Původně: #00a6e6 */
    </style>
    <path class="st0" d="M801 268.8l17.9-17.9c11.9 7.8 21.3 12 32.6 12 12.2 0 19.2-6.5 19.2-15.1v-.3c0-9.9-10.6-14.3-26.9-21.4-20.5-8.9-37.5-18.2-37.5-40.9v-.5c0-24.7 19.7-40.4 45.3-40.4 15.3 0 31.6 5.5 44.6 14.8l-17.6 17.6c-10.3-5.7-16.6-8.3-27.5-8.3-10.9 0-17.4 6-17.4 13.5v.5c0 9.1 10.9 13.8 26.9 21.1 21.2 9.6 37.3 19.5 37.3 41.1v.3c0 27.1-20.5 41.9-46.9 41.9-16.4.2-34.5-5.7-50-18m-426.4-73.9v-1.8c0-54.9 34.2-92.5 81.1-92.5 25.4 0 42.8 9 59.5 24.8l-19.9 20.2c-10-10.4-23.3-19.2-39.6-19.2-28.5 0-50 28.1-50 66.7v1c0 39.4 21.5 67.2 50 67.2 17.4 0 30.4-9.2 41.1-20.1l18.6 18.4c-15.8 17.3-36.2 27.5-61.3 27.5-46.4 0-79.5-36.8-79.5-92.2m152.3 22.3v-2.3c0-40.4 26.9-70.5 63.5-70.5 36.3 0 63 29.5 63 70.2v2.3c0 40.4-26.9 70.2-63.5 70.2-36.3 0-63-29.3-63-69.9m97.2-.6V215c0-25.6-14.2-46.4-34.2-46.4-20.5 0-33.7 20.5-33.7 46.2v1.6c0 25.6 14.2 46.4 34.2 46.4 20.5 0 33.7-20.5 33.7-46.2m48.9-69.1h27.1v15.4c7-11 22.2-18.5 36.5-18.5 26.4 0 45.5 18.9 45.5 48.2v91.7h-29.3v-85.8c0-19.2-9.1-29.8-24.6-29.8-15.3 0-25.9 12.7-25.9 31.7v83.9H673V147.5zm794.1 136.8H1440V269c-7 11-22.2 18.5-36.5 18.5-26.4 0-45.5-18.9-45.5-48.2v-91.7h29.3v85.8c0 19.2 9.1 29.8 24.6 29.8 15.3 0 25.9-12.7 25.9-31.6v-83.9h29.3v136.6zM930.9 252v-80.8h-15v-23.9h15v-30.5l29.3-6.8v37.3H991v23.9h-30.8v75.6c0 10.6 5.4 15 14.8 15 5.7 0 10.9-1.3 15.8-3.9v23.3c-6.7 3.6-14.5 6-24.3 6-20.3 0-35.6-8.6-35.6-35.2m266.4 9.2c-2.1.4-4.2.8-6.4.8-9.3 0-14.8-4.4-14.8-15V100.4h-29.3V252c0 26.7 15.3 35.2 35.5 35.2 5.6 0 10.5-.8 14.9-2.1v-23.9zm72.5 0c-2.1.4-4.2.8-6.4.8-9.3 0-14.8-4.4-14.8-15V100.4h-29.3V252c0 26.7 15.3 35.2 35.5 35.2 5.6 0 10.5-.8 14.9-2.1v-23.9zm-262.3-44v-2.1c0-41.2 24.9-70.7 58.5-70.7 37.3 0 57 31.1 57 72.3 0 1.8 0 6.2-.3 10.4h-86c2.6 23.1 16.8 35.8 34.7 35.8 12.6 0 21.3-5.5 30.1-13.6l16.8 16.7c-12.4 13.2-27.7 21.2-48.2 21.2-35.1 0-62.6-26.9-62.6-70m87.1-13c-1.6-21.7-11.4-35.7-28.5-35.7-16.1 0-27.5 12.4-29.5 35.7h58zm201.1-103.8h29.2v26.7h-29.2v-26.7zm0 46.9h29.3v137h-29.3v-137zm204.9 0h27.1v15.1c7.3-11.1 23-18 38.1-18.1 14.6-.2 29.6 5.7 35.8 18.6 8.4-12.6 23.3-18.4 38.3-18.4 25.4 0 44.4 16.8 44.4 47.9v91.9H1655v-85.8c0-19.7-8.3-30-23.3-30-14.3 0-24.6 10.9-24.6 30.3v85.6h-29.3v-86.1c0-19.4-8.6-29.8-23-29.8-13.4 0-24.9 13-24.9 31.9v84h-29.3V147.3z"></path>
    <path class="st1" d="M81.2 203.7l81.2 81.2H0l81.2-81.2zm81.1-122.8H81.5L20 142.2l61.2 61.5 81.2-81.1V80.9zm0 105.8h147.6L162.3 334.3V186.7zm.1-105.8V0l80.9 80.9h-80.9z"></path>
    <path class="st2" d="M162.4 284.9l-81.2-81.2 81.2-81.1v162.3zm0-204V0L81.5 80.9h80.9z"></path>
    <path class="st3" d="M162.4 284.9v89.8l-89.8-89.8h89.8zm0-204v105.8H310L204.3 80.9h-41.9zm49.9 203.5h65.5v-65.5l-65.5 65.5z"></path>
</svg>