<svg xmlns="http://www.w3.org/2000/svg" viewBox="0 0 55 16" width="55" height="16">
  <path fill="none" pointer-events="none" d="M0 0h55v16H0z"/>
  <path d="M13.805 6.506c-.098 2.965-2.49 5.352-5.41 5.352-1.69 0-3.296-.844-4.303-2.2l.008 6.3H.04l.002-9.452H4.05c.114 2.333 2.006 4.199 4.308 4.199 2.303 0 4.194-1.866 4.31-4.199h1.137m.014-.456v-.069c-.073-3.464-3.225-6.168-7.016-6.019C3.196.102.236 2.763.05 6.05h4c.116-2.331 2.007-4.196 4.308-4.196 2.301 0 4.193 1.865 4.31 4.196h1.15m3.209-2.87V1.499h.928c.724 0 1.028.231 1.028.79 0 .254 0 .893-.872.893h-1.084m0 .99h1.34c1.503 0 1.784-1.31 1.784-1.828 0-1.125-.655-1.833-1.737-1.833h-2.555v5.726h1.168V4.17m3.826 2.066h1.168V.51h-1.168v5.726M27.117.51h-4.113v5.726h4.245V5.222h-3.1V3.74h2.726V2.726H24.15V1.522h2.968V.51m2.118 2.52V1.497h1.457c.686 0 .817.447.817.75 0 .566-.295.781-.903.781h-1.371M28.09 6.236h1.145V3.994h1.208c.865 0 .912.303.912 1.084 0 .592.046.886.125 1.158h1.292v-.152c-.25-.095-.25-.303-.25-1.14 0-1.07-.249-1.245-.708-1.452.553-.192.865-.734.865-1.365 0-.494-.273-1.617-1.761-1.617H28.09v5.726m6.639-4.738h1.34c.53 0 .857.144.857.614 0 .455-.367.639-.825.639h-1.372V1.498m0 2.218h1.489c.42 0 .84.19.84.693 0 .582-.328.838-.896.838H34.73zm-1.122 2.52h2.369c1.144 0 1.449-.2 1.767-.52.297-.294.483-.725.483-1.18 0-.565-.178-1.125-.864-1.387.234-.12.686-.35.686-1.173 0-.59-.352-1.466-1.722-1.466h-2.719v5.726M43.524.51h-1.19v3.772c0 .694-.328 1.092-1.13 1.092-.546 0-.998-.35-.998-1.148V.51h-1.191v3.796c.015.574.131 1.036.436 1.387.498.568 1.261.696 1.776.696 1.41 0 2.297-.648 2.297-2.155V.51m2.182 2.52V1.497h1.457c.687 0 .819.447.819.75 0 .566-.297.781-.904.781h-1.372m-1.145 3.207h1.145V3.994h1.208c.865 0 .911.303.911 1.084 0 .592.047.886.125 1.158h1.293v-.152c-.248-.095-.248-.303-.248-1.14 0-1.07-.25-1.245-.71-1.452.552-.192.865-.734.865-1.365 0-.494-.274-1.617-1.76-1.617h-2.83v5.726m8.142-2.123h1.301c-.24 1.157-1.098 1.261-1.354 1.261-.795 0-1.629-.407-1.629-1.97 0-1.468.771-2.058 1.605-2.058.826 0 1.223.718 1.223.942h1.168c-.062-.79-.74-1.93-2.454-1.93-1.885-.009-2.733 1.466-2.733 3.03 0 2.01 1.222 3 2.57 3 1.02 0 1.449-.52 1.745-.87l.117.718h.778V3.15h-2.337v.964" fill="#ffffff"/>
</svg>
