<svg xmlns="http://www.w3.org/2000/svg" viewBox="0 0 73 19" width="73" height="19">
    <path fill="none" pointer-events="none" d="M0 1h73v19H0z"/>
    <g fill-rule="evenodd">
        <path d="M0 12.254c.055-.219.094-.444.168-.654.375-1.06 1.289-1.701 2.322-1.598.74.073 1.302.512 1.72 1.16.192.299.343.628.508.946.34.652.843 1.04 1.536 1.09.514.038.998-.095 1.436-.404.004.01.013.023.011.026-.705 1.008-1.511 1.882-2.64 2.318-1.032.4-2.078.5-3.125.09-.898-.35-1.557-.99-1.85-2.013-.034-.123-.057-.252-.086-.378v-.583m65.273.549c.727.428 1.456.573 2.222.17.28-.148.502-.375.666-.661.154-.271.297-.55.44-.829.319-.618.761-1.091 1.376-1.346 1.11-.459 2.374.168 2.836 1.397a2.758 2.758 0 0 1-.646 2.979c-.632.628-1.39.92-2.235.958-1.689.079-3.055-.648-4.156-2.012-.174-.215-.336-.437-.503-.656" fill="#FFFFFF"/>
        <path d="M39.21 8.318c-.006-.123-.01-.289-.028-.453-.05-.446-.149-.875-.424-1.23-.35-.45-.913-.454-1.252.004-.118.16-.214.353-.282.545-.2.569-.193 1.162-.138 1.755.034.372.112.732.318 1.042.229.343.536.481.92.394.374-.086.57-.38.701-.739.15-.41.174-.842.185-1.318m1.766-8.23l.177.062c.635.202 1.008.779 1.006 1.571-.002 2.725-.011 5.449-.01 8.173.001.306.033.617.094.916.08.408.337.685.67.88-.23.524-1.058.819-1.79.64-.684-.167-1.217-.56-1.533-1.251-.402.842-1.058 1.243-1.89 1.296a3.515 3.515 0 0 1-1.058-.112c-.78-.192-1.295-.762-1.614-1.529-.652-1.564-.688-3.159-.08-4.747.281-.737.745-1.32 1.47-1.568.972-.328 1.82-.049 2.548.698.141.145.264.309.431.506V1.78c0-.935.326-1.41 1.145-1.67.01-.004.017-.015.025-.022h.41m11.085 0c.132.054.269.092.392.162.518.296.767.775.767 1.406 0 2.763-.004 5.527-.004 8.291 0 .221.022.444.048.665.06.496.313.847.731 1.09-.055.066-.103.132-.159.188-.553.556-1.197.605-1.88.375-.966-.327-1.49-1.122-1.493-2.29-.007-2.814-.004-5.629-.002-8.444 0-.65.457-1.244 1.06-1.403.035-.008.067-.025.1-.04h.44M18.168 1.37c-.584.482-.779 1.18-.909 1.904-.2 1.123-.196 2.256-.1 3.391.098 1.172.312 2.312.727 3.402.43 1.133 1.085 2.066 2.065 2.702a3.722 3.722 0 0 0 1.727.594c-.033.08-.057.146-.088.21-1.048 2.207-3.408 2.276-4.756.941-.63-.624-1.022-1.408-1.3-2.269-.324-1.009-.472-2.054-.54-3.116a24.075 24.075 0 0 1 0-2.976.595.595 0 0 0-.03-.237l-2.82 4.137L9.654 5.9a2.77 2.77 0 0 1-.036.005l-.044.543c-.103 1.318-.321 2.61-.704 3.866-.257.845-.714 1.526-1.469 1.918-.751.388-1.489.185-1.978-.548-.163-.245-.282-.524-.423-.793.889-.441 1.346-1.239 1.702-2.12.433-1.068.65-2.2.767-3.354.081-.799.088-1.594-.058-2.385-.111-.593-.306-1.139-.759-1.58.113-.116.21-.241.33-.337.47-.378 1.011-.443 1.572-.39.693.068 1.212.474 1.595 1.07.52.809 1.004 1.645 1.501 2.47.19.314.376.631.565.948.027.046.059.09.097.15.042-.056.077-.097.106-.142.699-1.048 1.398-2.097 2.095-3.147.282-.424.581-.834 1.018-1.077.792-.438 1.576-.383 2.342.09.069.042.127.101.186.158.039.037.07.082.109.127m8.005 3.305c.547-.696 1.228-.81 1.974-.594.846.245 1.343.844 1.439 1.852l.121-.181c.418-.632.93-1.13 1.631-1.356.317-.103.641-.128.966-.076.628.1 1 .53 1.203 1.158.168.524.224 1.066.221 1.617-.004.964-.027 1.929-.025 2.893 0 .289.033.584.098.863.093.388.342.658.686.846-.29.376-.643.625-1.08.674-.587.067-1.142-.058-1.623-.45-.483-.395-.703-.935-.702-1.587 0-1.073.007-2.146.003-3.22 0-.14-.021-.287-.064-.419-.158-.474-.642-.602-.979-.254-.293.303-.454.69-.459 1.13-.012 1.13-.003 2.26-.005 3.39 0 .572-.228 1.01-.702 1.257-.483.252-.97.227-1.414-.12-.311-.244-.477-.597-.495-1.008-.02-.462-.004-.926-.005-1.387-.002-1.147-.01-2.295-.004-3.442.004-.685-.187-1.245-.785-1.586" fill="#FFFFFF"/>
        <path d="M21.36 8.337c.019.273.025.548.059.819.052.42.14.831.395 1.17.333.445.931.453 1.255.002.117-.163.211-.358.27-.555.227-.78.23-1.582.11-2.384-.063-.413-.18-.81-.442-1.134-.327-.404-.818-.408-1.127.013-.128.175-.23.381-.306.59-.173.473-.207.974-.214 1.48m4.818-.036c.008 2.238-1.665 4.08-3.712 4.087-2.113.007-3.795-1.804-3.794-4.085.002-2.22 1.658-4.036 3.658-4.082 2.073-.047 3.85 1.762 3.848 4.08M67.71 3.995c.332.303.44.7.471 1.13.043.594-.17 1.104-.482 1.572-.378.57-.863 1.025-1.358 1.467-.703.624-1.409 1.243-2.113 1.867-.008.005-.01.019-.018.037.02.008.037.02.055.02.587-.005 1.175.004 1.762-.021a2.561 2.561 0 0 0 1.553-.573c.16.191.25.416.303.662.185.868-.26 1.853-.981 2.171-.472.209-.929.128-1.368-.107-.305-.164-.595-.363-.903-.519-.761-.387-1.548-.338-2.337-.12-.491.136-.955.34-1.375.689-.073-.382-.032-.74.048-1.095.3-1.312.952-2.367 1.973-3.134.534-.401 1.098-.753 1.65-1.128.056-.038.116-.072.219-.135-.095-.006-.142-.012-.19-.013-.693-.002-1.386-.002-2.079-.01a2.02 2.02 0 0 1-.469-.043c-.487-.12-.794-.56-.778-1.093.016-.492.395-.951.862-1.035.098-.019.198-.026.297-.026 1.401-.001 2.802 0 4.204-.002.104 0 .21-.007.313-.02a.893.893 0 0 0 .74-.541M45.41 7.853c.052.01.077.02.101.02.231-.004.463.009.692-.015.152-.015.311-.06.45-.129.391-.194.624-.648.592-1.113-.022-.315-.228-.597-.511-.69-.345-.113-.605.05-.815.324-.35.46-.43 1.021-.51 1.603m4.036 2.09c-.157.972-.609 1.729-1.463 2.128-1.57.733-3.49.215-4.495-1.398-.508-.815-.66-1.732-.582-2.695.106-1.296.604-2.366 1.618-3.1.71-.516 1.501-.676 2.343-.58.693.079 1.348.28 1.93.708.777.57 1.117 1.466.935 2.435-.143.761-.628 1.154-1.262 1.381a5.076 5.076 0 0 1-1.515.271c-.455.018-.912.004-1.4.004a1.858 1.858 0 0 0 1.728 1.37c.516.031 1.03-.01 1.52-.197.22-.084.425-.214.643-.326m7.029-2.097c.317 0 .622.03.918-.007.477-.06.817-.445.902-.956.063-.387-.079-.732-.372-.901-.298-.172-.602-.113-.869.185-.418.465-.496 1.069-.58 1.68m.156 1.311c.178.517.496.88.95 1.107.29.145.6.222.917.204a10.07 10.07 0 0 0 1.153-.133c.307-.053.59-.197.865-.452-.026.145-.038.248-.063.347-.288 1.142-.98 1.822-2.034 2.057-1.333.298-2.508-.047-3.48-1.1-.589-.636-.894-1.429-.968-2.32-.09-1.09.093-2.122.692-3.022.805-1.204 1.915-1.686 3.264-1.549.662.067 1.286.265 1.853.65a2.396 2.396 0 0 1 .976 2.655c-.158.587-.544.93-1.042 1.148a4.01 4.01 0 0 1-1.317.308c-.58.045-1.16.067-1.766.1m.881-5.919h-2c-.484-.003-.891-.435-.891-.948 0-.518.402-.962.883-.963a768.04 768.04 0 0 1 4.016.001c.48 0 .89.455.885.963-.005.52-.405.945-.893.946h-2m2.187 14.006c-.05-.212-.085-.43-.155-.634-.056-.166-.177-.287-.357-.287-.185-.001-.302.123-.37.295-.164.41-.16.83-.013 1.246.064.184.195.295.385.294.185-.002.315-.11.371-.288.063-.197.091-.405.139-.626m.071 1.365c-.332.425-.75.502-1.218.394-.362-.085-.605-.334-.754-.69-.292-.696-.317-1.414-.041-2.122.344-.883 1.277-1.038 1.867-.325.031.039.066.073.11.122.018-.074.029-.138.046-.198.09-.312.379-.519.665-.48a.648.648 0 0 1 .536.638c.008.826.015 1.653.001 2.48a.645.645 0 0 1-.502.635c-.256.051-.512-.095-.664-.378-.013-.024-.028-.047-.046-.076m-16.19-1.37c.044.218.072.426.132.622.058.187.193.298.383.296.184 0 .31-.11.374-.286.151-.42.157-.844-.016-1.261-.067-.164-.178-.285-.357-.287-.187-.002-.311.122-.37.293-.068.199-.098.414-.146.623m1.101 1.368c-.487.668-1.666.608-2.015-.376-.242-.684-.269-1.373.002-2.05.351-.873 1.266-1.022 1.86-.319l.112.127c.028-.106.043-.2.077-.285.12-.281.412-.446.672-.387a.667.667 0 0 1 .505.654c.006.498.003.993.003 1.49 0 .297 0 .594-.002.891-.002.354-.177.61-.471.7-.262.078-.536-.063-.697-.361a20.295 20.295 0 0 0-.046-.084m-4.401-2.316c.112-.135.196-.248.293-.35.228-.238.5-.37.822-.362.308.01.533.16.614.483.069.272.106.558.117.84.018.496.006.993.004 1.49 0 .388-.255.683-.584.685-.34.002-.594-.292-.594-.69v-1.541c0-.215-.07-.345-.201-.382-.144-.04-.282.028-.365.222-.057.13-.098.278-.101.422-.014.439-.001.88-.007 1.318-.004.371-.273.656-.6.65-.325-.005-.574-.288-.577-.653-.002-.19-.007-.377-.007-.565.001-.606.004-1.21.007-1.815.002-.359.25-.63.573-.635.34-.005.595.259.605.62.002.078 0 .156 0 .263m-11.999.001c.114-.137.199-.253.296-.353.216-.224.472-.356.776-.359.367-.003.6.173.688.564.053.241.08.495.087.744.013.501.005 1.004.004 1.507 0 .388-.253.68-.585.682-.334 0-.592-.289-.593-.677 0-.495.004-.992.006-1.489 0-.068.013-.15-.015-.202-.05-.091-.118-.21-.198-.233-.08-.025-.23.021-.273.093-.09.15-.174.333-.185.508-.026.432-.008.867-.008 1.301-.002.402-.251.698-.588.699-.341.002-.59-.29-.591-.693v-2.312c0-.385.242-.661.579-.664.35-.003.598.27.6.66v.224m27.134-.026c.049-.065.088-.143.149-.194.177-.147.346-.327.545-.416.564-.249.997.04 1.082.692a4.6 4.6 0 0 1 .038.561c.006.52.01 1.04.003 1.558-.005.298-.217.552-.476.601a.583.583 0 0 1-.644-.373.714.714 0 0 1-.043-.247c-.004-.52 0-1.04-.004-1.56a.73.73 0 0 0-.032-.234c-.071-.217-.29-.272-.442-.11a.82.82 0 0 0-.213.571c-.003.445.002.89-.003 1.336-.001.31-.22.579-.49.619-.29.044-.563-.138-.651-.439a.784.784 0 0 1-.024-.201c0-.8-.002-1.6 0-2.399 0-.355.251-.623.58-.623.332.001.582.262.587.615v.234l.038.01m-2.71 1.006c-.028-.3-.05-.59-.192-.848-.17-.314-.458-.315-.635-.007a.714.714 0 0 0-.063.138 2.31 2.31 0 0 0 0 1.409c.06.185.173.331.377.332.204 0 .325-.138.377-.327.064-.227.092-.465.136-.697m1.16-.014c-.011 1.028-.76 1.823-1.707 1.812-.918-.012-1.668-.845-1.655-1.84.013-1.011.78-1.835 1.696-1.82.934.018 1.677.84 1.666 1.848m-19.928-.222c.153 0 .285.015.412-.003a.49.49 0 0 0 .4-.423c.027-.195-.034-.342-.176-.417-.14-.076-.284-.038-.405.116-.156.2-.201.442-.23.727m.078.567c.148.632 1.001.808 1.724.378-.074.442-.279.767-.653.947-.931.449-2.012-.14-2.243-1.217-.208-.976.27-1.953 1.104-2.208.542-.164 1.064-.062 1.531.282.349.258.466.634.389 1.077-.055.313-.248.518-.518.585-.34.082-.691.11-1.038.155-.092.012-.187.001-.296.001M63.03 18.79c-.221.29-.495.336-.792.262-.462-.115-.711-.464-.714-1.005a720.66 720.66 0 0 1 0-3.815c.001-.36.268-.647.587-.646.33.001.59.288.59.66.002 1.261.003 2.522 0 3.783 0 .309.038.594.33.762M25.004 13.88c.268-.363.785-.388 1.16-.079.27.223.34.539.342.88.003 1.244.004 2.49 0 3.734-.002.388-.268.67-.605.664-.331-.007-.572-.29-.573-.673v-3.77c0-.302-.04-.585-.324-.756m7.696 4.524c-.31.702-.968.891-1.542.37a1.144 1.144 0 0 1-.375-.885c0-.491-.003-.982-.006-1.473 0-.051-.005-.101-.007-.149-.32-.05-.376-.097-.374-.305.002-.198.062-.247.381-.297 0-.132-.002-.267 0-.403.004-.363.262-.652.581-.655.326-.003.597.29.604.652.003.13 0 .262 0 .425h.425c.209 0 .297.084.3.278.002.202-.087.287-.307.289h-.417v.224c0 .384.012.767-.004 1.148-.02.491.315.722.632.769.03.005.061.007.109.012m13.88-2.136c-.324-.056-.382-.106-.373-.319.006-.19.073-.242.38-.28v-.402c.004-.364.258-.655.577-.66.324-.005.597.283.608.647.004.136.001.272.001.43.167 0 .317-.004.468 0 .167.004.253.099.256.273.004.187-.08.286-.256.292-.146.005-.294.002-.46.002-.002.067-.007.128-.007.187 0 .393.013.789-.003 1.182-.023.497.314.723.627.772.034.006.069.01.105.017-.157.49-.67.769-1.124.617-.478-.159-.783-.61-.785-1.152-.001-.485-.005-.97-.007-1.456 0-.05-.004-.1-.007-.15m-9.179-.112c.109-.143.196-.27.297-.385.212-.239.521-.304.778-.173.231.117.374.414.35.728-.025.35-.195.613-.45.695-.3.097-.49-.022-.56-.35-.008-.034-.006-.073-.021-.1-.033-.053-.069-.13-.113-.14-.048-.01-.14.034-.156.078-.06.166-.13.34-.136.515-.018.473-.006.948-.006 1.421-.002.293-.183.549-.434.622a.558.558 0 0 1-.65-.29.821.821 0 0 1-.081-.357c-.007-.77.007-1.541-.008-2.311-.008-.43.317-.69.579-.696.315-.01.644.328.594.67 0 .015.008.031.017.073m11.549 1.186v-1.01c0-.352.248-.633.567-.645a.592.592 0 0 1 .608.6c.011.742.01 1.484 0 2.225-.003.306-.295.565-.595.559-.32-.006-.565-.267-.58-.615v-1.114m1.164-2.654c0 .36-.245.622-.577.621-.326-.001-.58-.277-.58-.628 0-.348.259-.635.576-.638.327-.004.582.279.581.645" fill="#FFFFFF"/>
    </g>
</svg>